<?xml version="1.0" encoding="utf-8"?>
<!-- Generator: Adobe Illustrator 25.2.1, SVG Export Plug-In . SVG Version: 6.00 Build 0)  -->
<svg version="1.1" id="Layer_1" xmlns="http://www.w3.org/2000/svg" xmlns:xlink="http://www.w3.org/1999/xlink" x="0px" y="0px"
	 viewBox="0 0 24 24" style="enable-background:new 0 0 24 24;" xml:space="preserve">
<style type="text/css">
	.st0{fill:#FFFFFF;}
</style>
<path class="st0" d="M10,13H4c-0.6,0-1,0.4-1,1v6c0,0.6,0.4,1,1,1h6c0.6,0,1-0.4,1-1v-6C11,13.4,10.6,13,10,13z M9,19H5v-4h4V19z
	 M20,3h-6c-0.6,0-1,0.4-1,1v6c0,0.6,0.4,1,1,1h6c0.6,0,1-0.4,1-1V4C21,3.4,20.6,3,20,3z M19,9h-4V5h4V9z M20,16h-2v-2
	c0-0.6-0.4-1-1-1s-1,0.4-1,1v2h-2c-0.6,0-1,0.4-1,1s0.4,1,1,1h2v2c0,0.6,0.4,1,1,1s1-0.4,1-1v-2h2c0.6,0,1-0.4,1-1S20.6,16,20,16z
	 M10,3H4C3.4,3,3,3.4,3,4v6c0,0.6,0.4,1,1,1h6c0.6,0,1-0.4,1-1V4C11,3.4,10.6,3,10,3z M9,9H5V5h4V9z"/>
</svg>
